# xmcd
#
# Track frame offsets: 
#        150
#        29817
#        42385
#        60385
#        85570
#        103860
#        124857
#        145295
#        159100
#
# Disc length: 2434 seconds
#
# Revision: 1
# Processed by: cddbd v1.5.2PL0 Copyright (c) Steve Scherf et al.
# Submitted via: ExactAudioCopy v0.95a5
#
DISCID=73098009
DTITLE=Bill Callahan - Woke On A Whaleheart
DYEAR=2007
DGENRE=Rock
TTITLE0=From The Rivers To The Ocean
TTITLE1=Footprints
TTITLE2=Diamond Dancer
TTITLE3=Sycamore
TTITLE4=The Wheel
TTITLE5=Honeymoon Child
TTITLE6=Day
TTITLE7=Night
TTITLE8=A Man Needs A Woman Or A Man To Be A Man
EXTD=
EXTT0=
EXTT1=
EXTT2=
EXTT3=
EXTT4=
EXTT5=
EXTT6=
EXTT7=
EXTT8=
PLAYORDER=
